<?xml version="1.0" encoding="utf-8"?>
<!-- Generator: Adobe Illustrator 19.1.1, SVG Export Plug-In . SVG Version: 6.00 Build 0)  -->
<svg version="1.1" id="Layer_1" xmlns="http://www.w3.org/2000/svg" xmlns:xlink="http://www.w3.org/1999/xlink" x="0px" y="0px"
	 viewBox="-415 217 128 128" style="enable-background:new -415 217 128 128;" xml:space="preserve">
<style type="text/css">
	.st0{opacity:0.6;fill:#D6D2CC;}
	.st1{fill:#D87E12;}
	.st2{fill:#B26508;}
	.st3{fill:url(#SVGID_1_);}
	.st4{fill:#F4B519;stroke:#EDA421;stroke-width:0.5;stroke-miterlimit:10;}
	.st5{fill:#FFE54A;}
	.st6{fill:#EDA421;}
</style>
<path class="st0" d="M-294.3,345h-108.5c-4,0-7.3-3.2-7.3-7.3V229.2c0-4,3.2-7.3,7.3-7.3h108.5c4,0,7.3,3.2,7.3,7.3v108.5
	C-287,341.7-290.2,345-294.3,345z"/>
<path class="st1" d="M-299.6,338h-109.8c-3.1,0-5.6-2.5-5.6-5.6V222.6c0-3.1,2.5-5.6,5.6-5.6h109.8c3.1,0,5.6,2.5,5.6,5.6v109.8
	C-294,335.5-296.5,338-299.6,338z"/>
<circle class="st2" cx="-352.5" cy="280" r="48.2"/>
<linearGradient id="SVGID_1_" gradientUnits="userSpaceOnUse" x1="-330.3968" y1="319.248" x2="-378.6032" y2="235.752">
	<stop  offset="0" style="stop-color:#F9C21E"/>
	<stop  offset="1" style="stop-color:#F9DB5E"/>
</linearGradient>
<circle class="st3" cx="-354.5" cy="277.5" r="48.2"/>
<circle class="st4" cx="-354.5" cy="277.3" r="41.5"/>
<g>
	<path class="st1" d="M-339.4,267c-0.3-0.3-0.8-0.7-1.6-1.2c-0.8-0.5-1.7-1-2.8-1.5c-1.1-0.5-2.3-1-3.6-1.4
		c-1.3-0.4-2.7-0.7-4.1-0.8v12.5l1.8,0.4c2.5,0.7,4.8,1.4,6.8,2.2c2.1,0.8,3.8,1.7,5.2,2.9c1.4,1.2,2.5,2.5,3.3,4.2
		c0.8,1.6,1.2,3.6,1.2,6c0,2.7-0.5,4.9-1.4,6.8s-2.2,3.4-3.8,4.6c-1.6,1.2-3.5,2.1-5.6,2.7c-2.1,0.6-4.4,1-6.7,1v8h-4.3v-8
		c-3.4-0.2-6.7-0.9-9.9-2.1c-3.2-1.1-6.2-2.6-8.8-4.5l4.4-8.6c0.4,0.4,1,0.9,2,1.5c0.9,0.6,2.1,1.3,3.4,1.9c1.4,0.6,2.8,1.2,4.5,1.7
		c1.6,0.5,3.3,0.9,5,1v-12.5l-2.7-0.7c-2.5-0.7-4.6-1.4-6.4-2.2c-1.8-0.8-3.3-1.7-4.5-2.8c-1.2-1.1-2.1-2.3-2.7-3.8
		c-0.6-1.4-0.9-3.2-0.9-5.1c0-2.5,0.4-4.6,1.3-6.6c0.8-1.9,2-3.5,3.5-4.9c1.5-1.3,3.2-2.4,5.3-3.2c2-0.8,4.2-1.3,6.6-1.4v-7.4h4.3
		v7.3c3.1,0.2,6,0.9,8.7,2s5,2.3,7.1,3.7L-339.4,267z M-361.5,267.7c0,1.6,0.6,2.9,1.7,3.7c1.2,0.8,2.9,1.6,5.2,2.3V262
		C-359.1,262.2-361.5,264.2-361.5,267.7z M-343.9,291.2c0-1.7-0.7-3-2-3.9c-1.4-0.9-3.2-1.8-5.6-2.5v11.7
		C-346.4,296.4-343.9,294.6-343.9,291.2z"/>
</g>
<g>
	<path class="st5" d="M-341.1,264.9c-0.3-0.3-0.8-0.7-1.6-1.2c-0.8-0.5-1.7-1-2.8-1.5c-1.1-0.5-2.3-1-3.6-1.4
		c-1.3-0.4-2.7-0.7-4.1-0.8v12.5l1.8,0.4c2.5,0.7,4.8,1.4,6.8,2.2c2.1,0.8,3.8,1.7,5.2,2.9c1.4,1.2,2.5,2.5,3.3,4.2
		c0.8,1.6,1.2,3.6,1.2,6c0,2.7-0.5,4.9-1.4,6.8s-2.2,3.4-3.8,4.6c-1.6,1.2-3.5,2.1-5.6,2.7c-2.1,0.6-4.4,1-6.7,1v8h-4.3v-8
		c-3.4-0.2-6.7-0.9-9.9-2.1c-3.2-1.1-6.2-2.6-8.8-4.5l4.4-8.6c0.4,0.4,1,0.9,2,1.5c0.9,0.6,2.1,1.3,3.4,1.9c1.4,0.6,2.8,1.2,4.5,1.7
		c1.6,0.5,3.3,0.9,5,1v-12.5l-2.7-0.7c-2.5-0.7-4.6-1.4-6.4-2.2c-1.8-0.8-3.3-1.7-4.5-2.8c-1.2-1.1-2.1-2.3-2.7-3.8
		c-0.6-1.4-0.9-3.2-0.9-5.1c0-2.5,0.4-4.6,1.3-6.6c0.8-1.9,2-3.5,3.5-4.9c1.5-1.3,3.2-2.4,5.3-3.2c2-0.8,4.2-1.3,6.6-1.4v-7.4h4.3
		v7.3c3.1,0.2,6,0.9,8.7,2s5,2.3,7.1,3.7L-341.1,264.9z M-363.1,265.7c0,1.6,0.6,2.9,1.7,3.7c1.2,0.8,2.9,1.6,5.2,2.3v-11.7
		C-360.8,260.2-363.1,262.1-363.1,265.7z M-345.5,289.2c0-1.7-0.7-3-2-3.9c-1.4-0.9-3.2-1.8-5.6-2.5v11.7
		C-348,294.3-345.5,292.6-345.5,289.2z"/>
</g>
<g>
	<path class="st6" d="M-353.5,236.8c10.9,0,22.3,5.7,29.7,12.5c-8.2-9-20.4-14.3-33.7-13.4c-20.5,1.4-37.1,18-38.6,38.6
		c-0.9,13.3,4.4,25.5,13.4,33.7c-6.8-7.4-12.5-18.9-12.5-29.7C-395.2,255.4-376.6,236.8-353.5,236.8z"/>
</g>
</svg>
