<?xml version="1.0" encoding="utf-8"?>
<!-- Generator: Adobe Illustrator 19.1.1, SVG Export Plug-In . SVG Version: 6.00 Build 0)  -->
<svg version="1.1" id="Layer_1" xmlns="http://www.w3.org/2000/svg" xmlns:xlink="http://www.w3.org/1999/xlink" x="0px" y="0px"
	 viewBox="-467 269 24 24" style="enable-background:new -467 269 24 24;" xml:space="preserve">
<style type="text/css">
	.st0{fill:#B26508;}
	.st1{fill:url(#SVGID_1_);}
	.st2{fill:#F4B519;stroke:#EDA421;stroke-width:0.5;stroke-miterlimit:10;}
	.st3{fill:#D87E12;}
	.st4{fill:#FFE54A;}
	.st5{fill:#EDA421;}
</style>
<g>
	<circle class="st0" cx="-454.8" cy="281.5" r="11.1"/>
	<linearGradient id="SVGID_1_" gradientUnits="userSpaceOnUse" x1="-449.6649" y1="290.5602" x2="-460.801" y2="271.2719">
		<stop  offset="0" style="stop-color:#F9C21E"/>
		<stop  offset="1" style="stop-color:#F9DB5E"/>
	</linearGradient>
	<circle class="st1" cx="-455.2" cy="280.9" r="11.1"/>
	<circle class="st2" cx="-455.2" cy="280.9" r="9.6"/>
	<g>
		<path class="st3" d="M-451.8,278.5c-0.1-0.1-0.2-0.2-0.4-0.3c-0.2-0.1-0.4-0.2-0.7-0.3c-0.3-0.1-0.5-0.2-0.8-0.3
			c-0.3-0.1-0.6-0.2-0.9-0.2v2.9l0.4,0.1c0.6,0.2,1.1,0.3,1.6,0.5c0.5,0.2,0.9,0.4,1.2,0.7c0.3,0.3,0.6,0.6,0.8,1
			c0.2,0.4,0.3,0.8,0.3,1.4c0,0.6-0.1,1.1-0.3,1.6s-0.5,0.8-0.9,1.1c-0.4,0.3-0.8,0.5-1.3,0.6c-0.5,0.1-1,0.2-1.6,0.2v1.8h-1v-1.9
			c-0.8-0.1-1.5-0.2-2.3-0.5c-0.7-0.3-1.4-0.6-2-1l1-2c0.1,0.1,0.2,0.2,0.5,0.4c0.2,0.1,0.5,0.3,0.8,0.4c0.3,0.1,0.7,0.3,1,0.4
			c0.4,0.1,0.8,0.2,1.2,0.2v-2.9l-0.6-0.2c-0.6-0.2-1.1-0.3-1.5-0.5c-0.4-0.2-0.8-0.4-1-0.6c-0.3-0.2-0.5-0.5-0.6-0.9
			c-0.1-0.3-0.2-0.7-0.2-1.2c0-0.6,0.1-1.1,0.3-1.5c0.2-0.4,0.5-0.8,0.8-1.1c0.3-0.3,0.7-0.5,1.2-0.7c0.5-0.2,1-0.3,1.5-0.3v-1.7h1
			v1.7c0.7,0.1,1.4,0.2,2,0.5c0.6,0.3,1.2,0.5,1.6,0.8L-451.8,278.5z M-456.8,278.6c0,0.4,0.1,0.7,0.4,0.9c0.3,0.2,0.7,0.4,1.2,0.5
			v-2.7C-456.3,277.4-456.8,277.8-456.8,278.6z M-452.8,284.1c0-0.4-0.2-0.7-0.5-0.9c-0.3-0.2-0.7-0.4-1.3-0.6v2.7
			C-453.4,285.3-452.8,284.9-452.8,284.1z"/>
	</g>
	<g>
		<path class="st4" d="M-452.1,278c-0.1-0.1-0.2-0.2-0.4-0.3c-0.2-0.1-0.4-0.2-0.7-0.3c-0.3-0.1-0.5-0.2-0.8-0.3
			c-0.3-0.1-0.6-0.2-0.9-0.2v2.9l0.4,0.1c0.6,0.2,1.1,0.3,1.6,0.5c0.5,0.2,0.9,0.4,1.2,0.7c0.3,0.3,0.6,0.6,0.8,1
			c0.2,0.4,0.3,0.8,0.3,1.4c0,0.6-0.1,1.1-0.3,1.6c-0.2,0.4-0.5,0.8-0.9,1.1c-0.4,0.3-0.8,0.5-1.3,0.6c-0.5,0.1-1,0.2-1.6,0.2v1.8
			h-1v-1.9c-0.8-0.1-1.5-0.2-2.3-0.5c-0.7-0.3-1.4-0.6-2-1l1-2c0.1,0.1,0.2,0.2,0.5,0.4c0.2,0.1,0.5,0.3,0.8,0.4
			c0.3,0.1,0.7,0.3,1,0.4c0.4,0.1,0.8,0.2,1.2,0.2v-2.9l-0.6-0.2c-0.6-0.2-1.1-0.3-1.5-0.5c-0.4-0.2-0.8-0.4-1-0.6
			c-0.3-0.2-0.5-0.5-0.6-0.9c-0.1-0.3-0.2-0.7-0.2-1.2c0-0.6,0.1-1.1,0.3-1.5c0.2-0.4,0.5-0.8,0.8-1.1c0.3-0.3,0.7-0.5,1.2-0.7
			c0.5-0.2,1-0.3,1.5-0.3v-1.7h1v1.7c0.7,0.1,1.4,0.2,2,0.5c0.6,0.3,1.2,0.5,1.6,0.8L-452.1,278z M-457.2,278.2
			c0,0.4,0.1,0.7,0.4,0.9c0.3,0.2,0.7,0.4,1.2,0.5v-2.7C-456.7,276.9-457.2,277.4-457.2,278.2z M-453.1,283.6c0-0.4-0.2-0.7-0.5-0.9
			c-0.3-0.2-0.7-0.4-1.3-0.6v2.7C-453.7,284.8-453.1,284.4-453.1,283.6z"/>
	</g>
	<g>
		<path class="st5" d="M-455,271.5c2.5,0,5.2,1.3,6.9,2.9c-1.9-2.1-4.7-3.3-7.8-3.1c-4.7,0.3-8.6,4.2-8.9,8.9
			c-0.2,3.1,1,5.9,3.1,7.8c-1.6-1.7-2.9-4.4-2.9-6.9C-464.6,275.8-460.3,271.5-455,271.5z"/>
	</g>
</g>
</svg>
