<?xml version="1.0" encoding="utf-8"?>
<!-- Generator: Adobe Illustrator 19.1.1, SVG Export Plug-In . SVG Version: 6.00 Build 0)  -->
<svg version="1.1" id="Layer_1" xmlns="http://www.w3.org/2000/svg" xmlns:xlink="http://www.w3.org/1999/xlink" x="0px" y="0px"
	 viewBox="-404 206 150 150" style="enable-background:new -404 206 150 150;" xml:space="preserve">
<style type="text/css">
	.st0{fill:#D87E12;}
	.st1{fill:#B26508;}
	.st2{fill:url(#SVGID_1_);}
	.st3{fill:#F4B519;stroke:#EDA421;stroke-width:0.5;stroke-miterlimit:10;}
	.st4{fill:#FFE54A;}
	.st5{fill:#EDA421;}
</style>
<rect x="-404" y="206" class="st0" width="150" height="150"/>
<circle class="st1" cx="-326.5" cy="284.1" r="59.8"/>
<linearGradient id="SVGID_1_" gradientUnits="userSpaceOnUse" x1="-299.12" y1="332.7537" x2="-358.88" y2="229.2463">
	<stop  offset="0" style="stop-color:#F9C21E"/>
	<stop  offset="1" style="stop-color:#F9DB5E"/>
</linearGradient>
<circle class="st2" cx="-329" cy="281" r="59.8"/>
<circle class="st3" cx="-329" cy="280.8" r="51.5"/>
<g>
	<path class="st0" d="M-310.3,267.9c-0.4-0.4-1-0.9-2-1.5c-1-0.6-2.2-1.2-3.5-1.8s-2.8-1.2-4.4-1.7c-1.6-0.5-3.3-0.9-5-1v15.5
		l2.2,0.5c3.1,0.8,5.9,1.7,8.5,2.7c2.5,1,4.7,2.2,6.5,3.6c1.8,1.4,3.1,3.2,4.1,5.2c1,2,1.4,4.5,1.4,7.4c0,3.3-0.6,6.1-1.8,8.4
		c-1.2,2.3-2.8,4.3-4.8,5.7c-2,1.5-4.3,2.6-7,3.4c-2.6,0.7-5.4,1.2-8.3,1.3v9.9h-5.4v-10c-4.2-0.3-8.3-1.2-12.3-2.6
		c-4-1.4-7.6-3.2-10.9-5.5l5.5-10.7c0.5,0.5,1.3,1.1,2.5,1.9c1.2,0.8,2.6,1.6,4.3,2.3c1.7,0.8,3.5,1.5,5.5,2.1
		c2,0.6,4.1,1.1,6.2,1.3v-15.4l-3.3-0.9c-3.1-0.8-5.7-1.8-7.9-2.7c-2.2-1-4.1-2.1-5.6-3.5c-1.5-1.3-2.6-2.9-3.4-4.7
		c-0.7-1.8-1.1-3.9-1.1-6.4c0-3.1,0.5-5.8,1.6-8.1c1-2.4,2.5-4.4,4.3-6c1.8-1.6,4-2.9,6.5-3.9c2.5-1,5.2-1.6,8.2-1.8v-9.2h5.4v9.1
		c3.9,0.3,7.5,1.1,10.8,2.5c3.3,1.3,6.2,2.9,8.8,4.5L-310.3,267.9z M-337.6,268.8c0,2,0.7,3.6,2.2,4.6c1.4,1,3.6,2,6.5,2.8v-14.5
		C-334.7,262.1-337.6,264.5-337.6,268.8z M-315.8,298c0-2.1-0.8-3.7-2.5-4.8c-1.7-1.1-4-2.2-7-3.1v14.5
		C-319,304.4-315.8,302.2-315.8,298z"/>
</g>
<g>
	<path class="st4" d="M-312.3,265.4c-0.4-0.4-1-0.9-2-1.5c-1-0.6-2.2-1.2-3.5-1.8s-2.8-1.2-4.4-1.7c-1.6-0.5-3.3-0.9-5-1v15.5
		l2.2,0.5c3.1,0.8,5.9,1.7,8.5,2.7c2.5,1,4.7,2.2,6.5,3.6c1.8,1.4,3.1,3.2,4.1,5.2c1,2,1.4,4.5,1.4,7.4c0,3.3-0.6,6.1-1.8,8.4
		c-1.2,2.3-2.8,4.3-4.8,5.7c-2,1.5-4.3,2.6-7,3.4c-2.6,0.7-5.4,1.2-8.3,1.3v9.9h-5.4v-10c-4.2-0.3-8.3-1.2-12.3-2.6
		c-4-1.4-7.6-3.2-10.9-5.5l5.5-10.7c0.5,0.5,1.3,1.1,2.5,1.9c1.2,0.8,2.6,1.6,4.3,2.3c1.7,0.8,3.5,1.5,5.5,2.1
		c2,0.6,4.1,1.1,6.2,1.3v-15.4l-3.3-0.9c-3.1-0.8-5.7-1.8-7.9-2.7c-2.2-1-4.1-2.1-5.6-3.5c-1.5-1.3-2.6-2.9-3.4-4.7
		c-0.7-1.8-1.1-3.9-1.1-6.4c0-3.1,0.5-5.8,1.6-8.1c1-2.4,2.5-4.4,4.3-6c1.8-1.6,4-2.9,6.5-3.9c2.5-1,5.2-1.6,8.2-1.8v-9.2h5.4v9.1
		c3.9,0.3,7.5,1.1,10.8,2.5c3.3,1.3,6.2,2.9,8.8,4.5L-312.3,265.4z M-339.6,266.3c0,2,0.7,3.6,2.2,4.6c1.4,1,3.6,2,6.5,2.8v-14.5
		C-336.7,259.6-339.6,262-339.6,266.3z M-317.8,295.5c0-2.1-0.8-3.7-2.5-4.8c-1.7-1.1-4-2.2-7-3.1v14.5
		C-321,301.9-317.8,299.7-317.8,295.5z"/>
</g>
<g>
	<path class="st5" d="M-327.8,230.5c13.5,0,27.7,7.1,36.9,15.5c-9.4-10.3-23-16.7-38.1-16.7c-28.5,0-51.7,23.1-51.7,51.7
		c0,15.1,6.4,28.6,16.7,38.1c-8.4-9.2-15.5-23.4-15.5-36.9C-379.5,253.7-356.3,230.5-327.8,230.5z"/>
</g>
</svg>
